# xmcd
#
# Track frame offsets: 
#        150
#        12550
#        24587
#        34442
#        50300
#        64332
#        77705
#        88632
#        99920
#
# Disc length: 1537 seconds
#
# Revision: 1
# Processed by: cddbd v1.5PL3 Copyright (c) Steve Scherf et al.
# Submitted via: ExactAudioCopy v0.90b4
#
DISCID=6d05ff09
DTITLE=Lorrie Morgan - Tell Me I'm Dreaming
DYEAR=1900
DGENRE=Country
TTITLE0=First Few Days Of Love
TTITLE1=I Don't Care
TTITLE2=I Love How You Love Me
TTITLE3=In For Rain
TTITLE4=Let It Be Yesterday
TTITLE5=Makin' Love For The First Time
TTITLE6=Say The Part About I Love You
TTITLE7=Tell Me I'm Only Dreaming
TTITLE8=Two People In Love
EXTD=
EXTT0=
EXTT1=
EXTT2=
EXTT3=
EXTT4=
EXTT5=
EXTT6=
EXTT7=
EXTT8=
PLAYORDER=
